<?xml version="1.0" encoding="utf-8"?>
<svg viewBox="364.734 239.6556 14 10" xmlns="http://www.w3.org/2000/svg">
  <path d="m3 3c-1.1046 0-2 .89543-2 2v6c0 1.1046.89543 2 2 2h10c1.1046 0 2-.89543 2-2v-6c0-1.1046-.89543-2-2-2zm0 2h10v6h-10z" transform="matrix(1, 0, 0, 1, 363.7339782714844, 236.65557861328125)" style="fill: rgb(165, 183, 243);"/>
  <path d="m4 1042.4h1v2h-1z" style="fill: rgb(165, 183, 243);" transform="matrix(1, 0, 0, 1, 363.7339782714844, -799.7444458007812)"/>
  <path d="m6 1043.4h1v3h-1z" style="fill: rgb(165, 183, 243);" transform="matrix(1, 0, 0, 1, 363.7339782714844, -799.7444458007812)"/>
  <path d="m8 1042.4h1v4h-1z" style="fill: rgb(165, 183, 243);" transform="matrix(1, 0, 0, 1, 363.7339782714844, -799.7444458007812)"/>
</svg>