<?xml version="1.0" encoding="utf-8"?>
<svg viewBox="328.822 282.494 14 10" xmlns="http://www.w3.org/2000/svg">
  <path d="M 330.822 282.494 C 329.717 282.494 328.822 283.389 328.822 284.494 L 328.822 290.494 C 328.822 291.598 329.718 292.494 330.822 292.494 L 340.822 292.494 C 341.927 292.494 342.822 291.598 342.822 290.494 L 342.822 284.494 C 342.822 283.389 341.927 282.494 340.822 282.494 L 330.822 282.494 Z M 330.822 284.494 L 340.822 284.494 L 340.822 290.494 L 330.822 290.494 L 330.822 284.494 Z" style="fill: rgb(254, 144, 77);"/>
  <path d="M 331.822 285.494 L 332.822 285.494 L 332.822 287.494 L 331.822 287.494 L 331.822 285.494 Z" style="fill: rgb(254, 144, 77);"/>
  <path d="M 333.822 286.494 L 334.822 286.494 L 334.822 289.494 L 333.822 289.494 L 333.822 286.494 Z" style="fill: rgb(254, 144, 77);"/>
  <path d="M 335.822 285.494 L 336.822 285.494 L 336.822 289.494 L 335.822 289.494 L 335.822 285.494 Z" style="fill: rgb(254, 144, 77);"/>
</svg>
