<?xml version="1.0" encoding="utf-8"?>
<svg viewBox="242.4065 275.285 13.9995 10" xmlns="http://www.w3.org/2000/svg">
  <path d="M 247.406 275.285 C 247.141 275.285 246.887 275.39 246.699 275.578 L 242.699 279.578 C 242.309 279.969 242.309 280.602 242.699 280.992 L 246.699 284.992 C 246.887 285.18 247.141 285.285 247.406 285.285 L 255.406 285.285 C 255.958 285.285 256.406 284.837 256.406 284.285 L 256.406 276.285 C 256.406 275.733 255.958 275.285 255.406 275.285 L 247.406 275.285 L 247.406 275.285 Z M 246.406 279.285 C 246.958 279.285 247.406 279.733 247.406 280.285 C 247.406 280.837 246.958 281.285 246.406 281.285 C 245.854 281.285 245.406 280.837 245.406 280.285 C 245.406 279.733 245.854 279.285 246.406 279.285 Z" fill-rule="evenodd" style="fill: rgb(165, 183, 243);"/>
</svg>